{
    "buffers": [
        {
            "uri": "bell_x1.bin",
            "byteLength": 118791000
        }
    ],
    "asset": {
        "version": "2.0",
        "generator": "gltfpack 0.17"
    },
    "bufferViews": [
        {
            "buffer": 0,
            "byteOffset": 0,
            "byteLength": 32561952,
            "byteStride": 12,
            "target": 34962
        },
        {
            "buffer": 0,
            "byteOffset": 32561952,
            "byteLength": 21707968,
            "byteStride": 8,
            "target": 34962
        },
        {
            "buffer": 0,
            "byteOffset": 54269920,
            "byteLength": 64447716,
            "target": 34963
        },
        {
            "buffer": 0,
            "byteOffset": 118717636,
            "byteLength": 73362,
            "target": 34963
        }
    ],
    "accessors": [
        {
            "bufferView": 0,
            "byteOffset": 0,
            "componentType": 5126,
            "count": 2705868,
            "type": "VEC3",
            "min": [
                -0.918091297,
                -3.2774961,
                -0.733347595
            ],
            "max": [
                7.25854683,
                0.892102242,
                8.34609222
            ]
        },
        {
            "bufferView": 1,
            "byteOffset": 0,
            "componentType": 5126,
            "count": 2705868,
            "type": "VEC2"
        },
        {
            "bufferView": 2,
            "byteOffset": 0,
            "componentType": 5125,
            "count": 16111929,
            "type": "SCALAR"
        },
        {
            "bufferView": 0,
            "byteOffset": 32470416,
            "componentType": 5126,
            "count": 7628,
            "type": "VEC3",
            "min": [
                -0.0536839999,
                -0.0841000006,
                0.552677989
            ],
            "max": [
                0.146328002,
                0.160183996,
                0.705147982
            ]
        },
        {
            "bufferView": 1,
            "byteOffset": 21646944,
            "componentType": 5126,
            "count": 7628,
            "type": "VEC2"
        },
        {
            "bufferView": 3,
            "byteOffset": 0,
            "componentType": 5123,
            "count": 36681,
            "type": "SCALAR"
        }
    ],
    "images": [
        {
            "uri": "bell_x1-complete_with_vane-smoothImage1.png"
        },
        {
            "uri": "bell_x1-complete_with_vane-smoothImage2.png"
        }
    ],
    "textures": [
        {
            "source": 0
        },
        {
            "source": 1
        }
    ],
    "materials": [
        {
            "pbrMetallicRoughness": {
                "baseColorTexture": {
                    "index": 0
                },
                "metallicFactor": 0
            }, "extensions": {
                "KHR_materials_unlit": {}
            }
        },
        {
            "pbrMetallicRoughness": {
                "baseColorTexture": {
                    "index": 1
                },
                "metallicFactor": 0
            }, "extensions": {
                "KHR_materials_unlit": {}
            }
        }
    ],
    "meshes": [
        {
            "primitives": [
                {
                    "attributes": {
                        "POSITION": 0,
                        "TEXCOORD_0": 1
                    },
                    "indices": 2,
                    "material": 0
                },
                {
                    "attributes": {
                        "POSITION": 3,
                        "TEXCOORD_0": 4
                    },
                    "indices": 5,
                    "material": 1
                }
            ]
        }
    ],
    "nodes": [
        {
            "mesh": 0,
            "rotation" : [
                -0.6763370037078857,
                -0.24105548858642578,
                0.19428785145282745,
                0.6683658361434937
            ]
        }
    ],
    "scenes": [
        {
            "nodes": [
                0
            ]
        }
    ]
}